<svg width="13" height="14" fill="none" xmlns="http://www.w3.org/2000/svg"><path d="M10.767 3.857h0zM.53 13.5l.706-9.281h1.06c.453 0 .838-.288.984-.69.146.402.532.69.985.69h3.5c.452 0 .838-.288.984-.69.146.402.532.69.984.69h1.06L11.5 13.5H.53zm1.156-7.813a1.595 1.595 0 103.145-.384.812.812 0 00-.395-.551.73.73 0 00-.656-.01.979.979 0 00-.5.574.98.98 0 00-.5-.574.73.73 0 00-.656.009.811.811 0 00-.395.553 1.724 1.724 0 00-.043.383zm5.47 0a1.595 1.595 0 103.144-.384.811.811 0 00-.395-.551.73.73 0 00-.657-.01.979.979 0 00-.499.574.98.98 0 00-.5-.574.73.73 0 00-.656.009.811.811 0 00-.395.553 1.724 1.724 0 00-.043.383z" stroke="#F58656"/></svg>