<svg width="13" height="14" viewBox="0 0 13 14" fill="none" xmlns="http://www.w3.org/2000/svg">
<path d="M10.7667 3.85714L10.7667 3.85775L10.7667 3.85714ZM0.530848 13.5L1.23703 4.21875H2.29686C2.74961 4.21875 3.13523 3.93134 3.28123 3.52902C3.42723 3.93134 3.81286 4.21875 4.26561 4.21875H7.76561C8.21836 4.21875 8.60399 3.93134 8.74998 3.52901C8.89598 3.93134 9.2816 4.21875 9.73436 4.21875H10.7942L11.5004 13.5H0.530848ZM1.68748 5.6875C1.68748 6.5667 2.40186 7.28125 3.28123 7.28125C4.16061 7.28125 4.87498 6.5667 4.87498 5.6875C4.87498 5.55841 4.86098 5.42943 4.83198 5.30337C4.78427 5.09598 4.66785 4.87487 4.43693 4.75156C4.20349 4.62691 3.95909 4.65898 3.78053 4.74199C3.54645 4.8508 3.36952 5.06217 3.28123 5.31594C3.19286 5.06191 3.01571 4.85042 2.78166 4.74155C2.60322 4.65855 2.35863 4.62619 2.12493 4.75104C1.89366 4.87459 1.77743 5.09621 1.73004 5.30381C1.70131 5.42968 1.68748 5.55848 1.68748 5.6875ZM7.15623 5.6875C7.15623 6.5667 7.8706 7.28125 8.74998 7.28125C9.62936 7.28125 10.3437 6.5667 10.3437 5.6875C10.3437 5.55841 10.3297 5.42943 10.3007 5.30337C10.253 5.09598 10.1366 4.87487 9.90568 4.75156C9.67224 4.62691 9.42784 4.65898 9.24928 4.74199C9.0152 4.8508 8.83827 5.06217 8.74998 5.31594C8.66161 5.06191 8.48446 4.85042 8.25041 4.74155C8.07197 4.65855 7.82737 4.62619 7.59367 4.75104C7.36241 4.87459 7.24618 5.09621 7.19879 5.30381C7.17006 5.42968 7.15623 5.55848 7.15623 5.6875Z" stroke="#F58656"/>
</svg>
